<?xml version="1.0" encoding="UTF-8"?>
<svg data-bbox="0.333 0.467 242.434 521.333" xmlns="http://www.w3.org/2000/svg" viewBox="0 0 243 522" height="522" width="243" data-type="color">
    <g>
        <path fill="#A26028" d="M226.867 12.734c-7.734 6.8-22.4 19.2-32.667 27.6-10.133 8.4-19.2 15.866-20 16.666-.8.667-14.533 12.4-30.533 26-15.867 13.6-38.934 33.334-51.2 43.867-30.4 26.4-35.867 31.067-55.067 47.467-2.533 2.133-11.466 9.733-19.733 16.666C9.4 197.934 2.2 205 1.533 206.733c-1.6 4.134-1.6 43.867 0 44.934.667.4 1.6.133 2.134-.667.933-1.6 15.6-14.266 36.533-32 8.267-6.933 22.4-18.933 31.334-26.666 8.933-7.734 18.666-16 21.466-18.4 6.933-5.734 22-18.4 35.733-30.267 6-5.2 21.6-18.4 34.667-29.333 13.067-11.067 26.8-22.534 30.4-25.734 11.867-10 11.867-10 11.867 22.667 0 15.6.266 48.133.533 72.4.267 24.133.533 110.133.667 191.066L207 521.8l17.733-.4 17.6-.4.4-260.4C242.867 117.534 242.6.334 242.067.467c-.667 0-7.467 5.6-15.2 12.267" data-color="1"/>
        <path fill="#A26028" d="M163.4 195.934c-5.067 4.267-10.533 8.933-12.4 10.667-1.867 1.6-5.467 4.266-8 6l-4.667 3.2v151.2c0 84 .534 152.133 1.201 152.933 1.466 2.267 30.933 2.4 32.133.267.933-1.334 2-331.867 1.066-331.867-.133 0-4.4 3.467-9.333 7.6" data-color="1"/>
        <path fill="#A26028" d="M102.067 250.867c-.933 1.467-8.533 8.133-17.067 14.8C74.6 273.934 69.4 279 68.734 281.4c-.4 1.867-.4 31.733 0 66.267.533 34.4.933 87.733.933 118.266v55.734h15.867c11.733 0 16.133-.534 17.333-1.867 1.067-1.333 1.333-38.133 1.2-136.667-.267-107.199-.8-134.266-2-132.266" data-color="1"/>
        <path fill="#A26028" d="M22.467 311.667C16.734 316.2 9.4 321.4 6.2 322.867.467 325.8.467 325.8.867 332.067c.267 3.466.533 47.6.667 98l.133 91.733 16.933-.4 17.067-.4-.4-107.333C35.134 354.6 35 305.533 35 304.6c0-2.667-1.466-1.867-12.533 7.067" data-color="1"/>
    </g>
</svg>
